<svg xmlns="http://www.w3.org/2000/svg" width="18" height="18" viewBox="0 0 18 18"><g><g><path fill="#fff" d="M17.25 9c0 2.292-.802 4.24-2.406 5.843C13.239 16.448 11.29 17.25 9 17.25c-2.292 0-4.24-.8-5.844-2.406C1.552 13.24.75 11.292.75 9c0-2.29.802-4.238 2.406-5.843C4.76 1.552 6.708.75 9 .75c2.291 0 4.24.802 5.844 2.406 1.604 1.605 2.406 3.552 2.406 5.843zm-1.375 0c0-1.891-.673-3.509-2.02-4.856C12.51 2.798 10.891 2.124 9 2.124c-1.89 0-3.51.674-4.855 2.02-1.347 1.347-2.02 2.965-2.02 4.855 0 1.891.673 3.51 2.02 4.856 1.346 1.347 2.964 2.02 4.855 2.02 1.89 0 3.509-.673 4.855-2.02 1.347-1.346 2.02-2.965 2.02-4.856z"/></g></g></svg>