<!-- Generated by IcoMoon.io -->
<svg version="1.1" xmlns="http://www.w3.org/2000/svg" width="512" height="512" viewBox="0 0 512 512">
<title></title>
<g id="icomoon-ignore">
</g>
<path d="M112.39 208.048c61.795 0 111.891 50.096 111.891 111.89 0 61.796-50.095 111.89-111.891 111.89s-111.891-50.095-111.891-111.89l-0.499-15.985c0-123.591 100.19-223.781 223.781-223.781v63.938c-42.696 0-82.836 16.627-113.026 46.817-5.811 5.813-11.115 11.996-15.9 18.492 5.713-0.899 11.569-1.371 17.535-1.371zM400.109 208.048c61.795 0 111.891 50.096 111.891 111.89 0 61.796-50.096 111.89-111.89 111.89s-111.89-50.095-111.89-111.89l-0.5-15.985c0-123.591 100.19-223.781 223.781-223.781v63.938c-42.695 0-82.836 16.627-113.026 46.817-5.813 5.813-11.116 11.996-15.901 18.492 5.714-0.899 11.569-1.371 17.536-1.371z"></path>
</svg>
