<svg xmlns="http://www.w3.org/2000/svg" xmlns:xlink="http://www.w3.org/1999/xlink" width="40" height="40" viewBox="0 0 40 40"><defs><path id="jjf8a" d="M941.648 602c0 5.104 1.776 9.44 5.33 13.007 3.552 3.568 7.87 5.352 12.953 5.352 5.083 0 9.401-1.784 12.954-5.352 3.552-3.566 5.33-7.903 5.33-13.008 0-5.103-1.778-9.44-5.33-13.007-3.553-3.567-7.87-5.352-12.954-5.352-5.083 0-9.401 1.785-12.953 5.352-3.554 3.568-5.33 7.904-5.33 13.007zm38.2 0c0 5.521-1.945 10.234-5.835 14.14-3.89 3.906-8.584 5.86-14.082 5.86-5.498 0-10.191-1.954-14.081-5.86-3.89-3.906-5.836-8.619-5.836-14.14 0-5.52 1.945-10.235 5.836-14.14 3.89-3.907 8.583-5.86 14.081-5.86 5.498 0 10.192 1.953 14.082 5.86 3.89 3.905 5.836 8.62 5.836 14.14zm-19.917 4.53l-8.947-8.828 1.323-1.327 7.624 7.812 10.97-11.172 1.323 1.328zm.934-20.468c.259.261.389.574.389.938 0 .365-.13.677-.389.937-.26.261-.571.391-.934.391-.363 0-.674-.13-.933-.39a1.277 1.277 0 0 1-.39-.938c0-.364.13-.677.39-.938.259-.26.57-.39.933-.39.363 0 .674.13.934.39zm0 30c.259.261.389.574.389.937 0 .366-.13.678-.389.938-.26.262-.571.39-.934.39-.363 0-.674-.128-.933-.39a1.277 1.277 0 0 1-.39-.938c0-.363.13-.676.39-.937.259-.26.57-.39.933-.39.363 0 .674.13.934.39zm-14.938-15c.26.261.39.574.39.937 0 .366-.13.678-.39.938-.26.26-.571.39-.933.39-.364 0-.675-.13-.934-.39a1.277 1.277 0 0 1-.389-.938c0-.363.129-.676.39-.937.258-.26.57-.39.933-.39.362 0 .673.13.933.39zm29.876 0c.259.261.389.574.389.937 0 .366-.13.678-.39.938-.26.26-.57.39-.933.39-.363 0-.674-.13-.933-.39-.26-.26-.39-.572-.39-.938 0-.363.13-.676.39-.937.259-.26.57-.39.933-.39.363 0 .674.13.934.39z"/></defs><g><g transform="translate(-940 -582)"><use fill="#b27cf5" xlink:href="#jjf8a"/></g></g></svg>